<?xml version="1.0" encoding="UTF-8"?>
<svg width="610px" height="150px" viewBox="0 0 610 150" version="1.1" xmlns="http://www.w3.org/2000/svg" xmlns:xlink="http://www.w3.org/1999/xlink">
    <!-- Generator: Sketch 55.2 (78181) - https://sketchapp.com -->
    <title>Slice 1</title>
    <desc>Created with Sketch.</desc>
    <g id="Page-1" stroke="none" stroke-width="1" fill="none" fill-rule="evenodd">
        <g id="restorative-fitness-logo-white" fill="#FFFFFF" fill-rule="nonzero">
            <path d="M174.7,46.8857143 L180.7,5.05714286 L194.5,5.05714286 C199.5,5.05714286 203.4,6.08571429 206.3,8.22857143 C209.2,10.2857143 210.6,13.2 210.6,16.9714286 C210.6,18.2571429 210.4,19.5428571 210.1,20.8285714 C209.8,22.1142857 209.2,23.4 208.5,24.6857143 C207.8,25.8857143 206.8,27.0857143 205.7,28.1142857 C204.5,29.1428571 203.2,30.0857143 201.5,30.7714286 C202.3,32.1428571 203.1,33.4285714 203.8,34.7142857 C204.5,36 205.3,37.2857143 206,38.5714286 C206.8,39.8571429 207.6,41.2285714 208.4,42.6 C209.2,43.9714286 210.1,45.5142857 211.1,47.0571429 L201.3,47.0571429 C199.7,44.3142857 198.2,41.8285714 196.7,39.4285714 C195.2,37.0285714 193.9,34.8 192.5,32.6571429 L191.8,32.6571429 L185,32.6571429 L182.9,47.0571429 L174.7,46.8857143 Z M185.9,25.8857143 L192.5,25.8857143 C194.4,25.8857143 195.9,25.6285714 197.2,25.0285714 C198.5,24.5142857 199.5,23.7428571 200.2,22.9714286 C201,22.1142857 201.5,21.2571429 201.8,20.4 C202.1,19.4571429 202.3,18.6 202.3,17.9142857 C202.3,17.2285714 202.2,16.5428571 201.9,15.8571429 C201.7,15.1714286 201.2,14.4857143 200.7,13.8857143 C200.1,13.2857143 199.3,12.7714286 198.3,12.3428571 C197.3,11.9142857 196.1,11.7428571 194.6,11.7428571 L188,11.7428571 L185.9,25.8857143 Z" id="Shape"></path>
            <polygon id="Path" points="217.2 46.8857143 223.2 5.05714286 255.6 5.05714286 254.7 11.4 230.4 11.4 228.8 22.6285714 250.4 22.6285714 249.5 29.1428571 227.9 29.1428571 226.3 40.2857143 251.5 40.2857143 250.6 46.8 217.2 46.8"></polygon>
            <path d="M293.1,7.37142857 L289.3,13.1142857 C287.5,12.5142857 285.7,12.0857143 284,11.7428571 C282.2,11.4 280.5,11.2285714 278.9,11.2285714 C276,11.2285714 273.7,11.7428571 272,12.6857143 C270.2,13.7142857 269.4,14.9142857 269.4,16.4571429 C269.4,17.5714286 269.9,18.4285714 271,19.1142857 C272.1,19.8 273.4,20.4857143 275,21 C276.6,21.6 278.3,22.2 280.2,22.8 C282.1,23.4 283.8,24.1714286 285.4,25.0285714 C287,25.8857143 288.3,27.0857143 289.4,28.4571429 C290.5,29.8285714 291,31.5428571 291,33.6 C291,35.5714286 290.6,37.3714286 289.7,39.0857143 C288.8,40.7142857 287.5,42.1714286 285.8,43.3714286 C284.1,44.5714286 281.9,45.5142857 279.3,46.2 C276.7,46.8857143 273.6,47.2285714 270.2,47.2285714 C268.2,47.2285714 266.5,47.1428571 264.9,46.8857143 C263.3,46.6285714 261.9,46.3714286 260.7,46.0285714 C259.4,45.6857143 258.4,45.3428571 257.5,44.9142857 C256.6,44.4857143 255.8,44.1428571 255.1,43.7142857 L259.6,37.5428571 C260.4,37.9714286 261.4,38.4 262.3,38.7428571 C263.3,39.0857143 264.3,39.3428571 265.3,39.6 C266.3,39.8571429 267.3,40.0285714 268.2,40.1142857 C269.2,40.2 270,40.2857143 270.8,40.2857143 C271.6,40.2857143 272.8,40.2 274.1,40.0285714 C275.5,39.8571429 276.8,39.5142857 278.1,39.0857143 C279.4,38.6571429 280.5,37.9714286 281.5,37.2 C282.5,36.4285714 282.9,35.4 282.9,34.2 C282.9,33 282.4,32.0571429 281.3,31.2 C280.2,30.4285714 278.9,29.6571429 277.3,29.0571429 C275.7,28.4571429 274,27.7714286 272.1,27.1714286 C270.2,26.5714286 268.5,25.8 266.9,24.9428571 C265.3,24.0857143 264,23.0571429 262.9,21.8571429 C261.8,20.6571429 261.3,19.1142857 261.3,17.3142857 C261.3,15.8571429 261.7,14.3142857 262.5,12.7714286 C263.3,11.2285714 264.4,9.85714286 266,8.65714286 C267.5,7.45714286 269.4,6.42857143 271.7,5.65714286 C274,4.88571429 276.6,4.54285714 279.6,4.54285714 C281.3,4.54285714 282.9,4.62857143 284.5,4.88571429 C286.1,5.14285714 287.5,5.4 288.8,5.74285714 C290,6.08571429 291.1,6.34285714 291.9,6.6 C292.5,7.2 292.9,7.37142857 293.1,7.37142857 Z" id="Path"></path>
            <polygon id="Path" points="332.2 5.05714286 331.3 11.7428571 319.2 11.7428571 314.2 46.8857143 306 46.8857143 311 11.7428571 299.2 11.7428571 300.2 5.05714286"></polygon>
            <path d="M388.5,46.8857143 L394.5,5.05714286 L408.3,5.05714286 C413.3,5.05714286 417.2,6.08571429 420.1,8.22857143 C423,10.2857143 424.4,13.2 424.4,16.9714286 C424.4,18.2571429 424.2,19.5428571 423.9,20.8285714 C423.6,22.1142857 423,23.4 422.3,24.6857143 C421.6,25.8857143 420.6,27.0857143 419.5,28.1142857 C418.3,29.1428571 417,30.0857143 415.3,30.7714286 C416.1,32.1428571 416.9,33.4285714 417.6,34.7142857 C418.3,36 419.1,37.2857143 419.8,38.5714286 C420.6,39.8571429 421.4,41.2285714 422.2,42.6 C423,43.9714286 423.9,45.5142857 424.9,47.0571429 L415,47.0571429 C413.4,44.3142857 411.9,41.8285714 410.4,39.4285714 C408.9,37.0285714 407.6,34.8 406.2,32.6571429 L405.5,32.6571429 L398.7,32.6571429 L396.6,47.0571429 L388.5,47.0571429 L388.5,46.8857143 Z M399.7,25.8857143 L406.3,25.8857143 C408.2,25.8857143 409.7,25.6285714 411,25.0285714 C412.2,24.5142857 413.3,23.7428571 414,22.9714286 C414.8,22.1142857 415.3,21.2571429 415.6,20.4 C415.9,19.4571429 416.1,18.6 416.1,17.9142857 C416.1,17.2285714 416,16.5428571 415.7,15.8571429 C415.5,15.1714286 415,14.4857143 414.5,13.8857143 C413.9,13.2857143 413.1,12.7714286 412.1,12.3428571 C411.1,11.9142857 409.9,11.7428571 408.4,11.7428571 L401.8,11.7428571 L399.7,25.8857143 Z" id="Shape"></path>
            <path d="M461,46.8857143 L457.2,35.8285714 L440.4,35.8285714 C439.6,37.1142857 438.8,38.4 438.1,39.6 C437.3,40.8 436.7,41.9142857 436.1,42.9428571 C435.5,43.9714286 435,44.7428571 434.5,45.4285714 C434.1,46.1142857 433.7,46.6285714 433.6,46.8857143 L425.5,46.8857143 C425.7,46.5428571 426.3,45.6857143 427.1,44.3142857 C428,42.9428571 429.1,41.2285714 430.3,39.2571429 C431.6,37.2857143 433,34.9714286 434.6,32.5714286 C436.2,30.0857143 437.8,27.6 439.5,25.0285714 C441.2,22.4571429 442.8,19.9714286 444.4,17.4857143 C446,15 447.4,12.7714286 448.7,10.8 C450,8.82857143 451.1,7.11428571 451.9,5.74285714 C452.8,4.37142857 453.3,3.51428571 453.5,3.17142857 C453.6,3.51428571 453.9,4.37142857 454.4,5.74285714 C454.9,7.11428571 455.5,8.82857143 456.2,10.8 C456.9,12.7714286 457.7,15.0857143 458.6,17.4857143 C459.5,19.8857143 460.4,22.4571429 461.3,25.0285714 C462.2,27.6 463.1,30.0857143 464,32.5714286 C464.9,35.0571429 465.7,37.2857143 466.4,39.2571429 C467.1,41.2285714 467.7,42.9428571 468.2,44.3142857 C468.7,45.6857143 469,46.5428571 469.1,46.8857143 L461,46.8857143 Z M444.2,30 L455.3,30 C454.5,27.6 453.7,25.4571429 453.1,23.5714286 C452.5,21.6857143 452.1,20.4857143 451.9,19.9714286 C451.9,19.9714286 451.9,19.6285714 451.8,19.2 C451.7,18.6857143 451.6,18.2571429 451.5,17.9142857 C451.4,18.2571429 451.2,18.7714286 450.9,19.2 C450.7,19.7142857 450.5,19.9714286 450.5,19.9714286 L444.2,30 Z" id="Shape"></path>
            <polygon id="Path" points="505.5 5.05714286 504.6 11.7428571 492.5 11.7428571 487.5 46.8857143 479.3 46.8857143 484.3 11.7428571 472.5 11.7428571 473.5 5.05714286"></polygon>
            <polygon id="Path" points="513.9 5.05714286 522.1 5.05714286 516.1 46.8857143 507.9 46.8857143"></polygon>
            <path d="M535.9,5.05714286 C536,5.48571429 536.3,6.34285714 536.8,7.71428571 C537.3,9.08571429 537.8,10.7142857 538.5,12.6 C539.1,14.4857143 539.8,16.4571429 540.5,18.5142857 C541.2,20.5714286 541.9,22.5428571 542.5,24.4285714 C543.1,26.3142857 543.7,27.9428571 544.1,29.3142857 C544.6,30.6857143 544.9,31.6285714 545.1,31.9714286 C545.1,31.9714286 545.1,32.3142857 545.2,32.7428571 C545.3,33.2571429 545.4,33.6857143 545.5,34.1142857 C545.6,33.6857143 545.8,33.2571429 546.1,32.7428571 C546.3,32.2285714 546.5,31.9714286 546.5,31.9714286 C546.8,31.5428571 547.3,30.6857143 548.2,29.3142857 C549.1,27.9428571 550.1,26.3142857 551.2,24.4285714 C552.3,22.5428571 553.6,20.5714286 554.9,18.5142857 C556.2,16.4571429 557.5,14.4857143 558.6,12.6 C559.8,10.7142857 560.8,9.08571429 561.6,7.71428571 C562.4,6.34285714 563,5.4 563.3,5.05714286 L571.4,5.05714286 C571.2,5.4 570.6,6.25714286 569.8,7.62857143 C569,9 567.8,10.7142857 566.6,12.6857143 C565.3,14.6571429 563.9,16.9714286 562.3,19.3714286 C560.7,21.8571429 559.1,24.3428571 557.4,26.9142857 C555.7,29.4857143 554.1,31.9714286 552.5,34.4571429 C550.9,36.9428571 549.5,39.1714286 548.2,41.2285714 C546.9,43.2 545.8,44.9142857 545,46.2857143 C544.1,47.6571429 543.6,48.5142857 543.4,48.8571429 C543.3,48.5142857 543,47.6571429 542.5,46.2857143 C542,44.9142857 541.4,43.2 540.7,41.2285714 C540,39.2571429 539.2,36.9428571 538.3,34.4571429 C537.4,31.9714286 536.5,29.4857143 535.6,26.9142857 C534.7,24.3428571 533.8,21.8571429 532.9,19.3714286 C532,16.8857143 531.2,14.6571429 530.5,12.6857143 C529.8,10.7142857 529.2,9 528.7,7.62857143 C528.2,6.25714286 527.9,5.4 527.8,5.05714286 L535.9,5.05714286 Z" id="Path"></path>
            <polygon id="Path" points="571.2 46.8857143 577.2 5.05714286 609.6 5.05714286 608.7 11.4 584.4 11.4 582.8 22.6285714 604.4 22.6285714 603.5 29.1428571 581.9 29.1428571 580.3 40.2857143 605.5 40.2857143 604.6 46.8 571.2 46.8"></polygon>
            <g id="Group" transform="translate(175.000000, 63.428571)">
                <polygon id="Path" points="0 72.6 9.9 3.34285714 59 3.34285714 57.4 14.0571429 21.9 14.0571429 19.1 33.4285714 50 33.4285714 48.3 44.2285714 17.5 44.2285714 13.4 72.5142857 0 72.5142857"></polygon>
                <polygon id="Path" points="71.9 3.34285714 85.4 3.34285714 75.5 72.6 62 72.6"></polygon>
                <polygon id="Path" points="152.5 3.34285714 150.9 14.4857143 130.8 14.4857143 122.5 72.6 108.9 72.6 117.2 14.4857143 97.7 14.4857143 99.4 3.34285714"></polygon>
                <path d="M237.6,3.34285714 L227.3,75.8571429 C226.9,75.2571429 225.9,74.2285714 224.3,72.6857143 C222.7,71.1428571 220.8,69.3428571 218.6,67.2 C216.3,65.0571429 213.8,62.7428571 211.1,60.1714286 C208.3,57.6 205.5,55.0285714 202.6,52.3714286 C199.7,49.7142857 196.9,47.1428571 194.1,44.6571429 C191.3,42.0857143 188.8,39.7714286 186.6,37.7142857 C184.4,35.5714286 182.5,33.7714286 180.9,32.3142857 C179.3,30.8571429 178.4,29.8285714 178,29.2285714 C177.9,29.1428571 177.7,28.8 177.2,28.2 C176.8,27.6857143 176.4,27.1714286 176.1,26.7428571 C176,27.2571429 176,27.7714286 176,28.2857143 C176,28.8 176,29.3142857 176,29.8285714 L169.8,72.6857143 L156.3,72.6857143 L166.7,0.257142857 C167.1,0.857142857 168.1,1.88571429 169.7,3.34285714 C171.3,4.8 173.2,6.6 175.5,8.74285714 C177.8,10.8 180.3,13.1142857 183.1,15.6 C185.9,18.0857143 188.7,20.5714286 191.6,23.1428571 C194.5,25.7142857 197.3,28.2 200.1,30.7714286 C202.9,33.2571429 205.4,35.5714286 207.6,37.6285714 C209.9,39.6857143 211.7,41.4857143 213.3,42.9428571 C214.8,44.4 215.8,45.4285714 216.2,45.9428571 L218,48.6 C218.1,48.0857143 218.1,47.5714286 218.1,46.9714286 C218.1,46.3714286 218.1,45.8571429 218.1,45.3428571 L224.1,3.42857143 L237.6,3.42857143 L237.6,3.34285714 Z" id="Path"></path>
                <polygon id="Path" points="246.1 72.6 256 3.34285714 309.6 3.34285714 308.2 13.8857143 268.1 13.8857143 265.4 32.4857143 301.1 32.4857143 299.5 43.2857143 263.8 43.2857143 261.1 61.7142857 302.8 61.7142857 301.2 72.5142857 246.1 72.5142857"></polygon>
                <path d="M371.7,7.2 L365.5,16.7142857 C362.5,15.7714286 359.6,15 356.7,14.4 C353.8,13.8 351,13.5428571 348.3,13.5428571 C343.6,13.5428571 339.7,14.4 336.8,16.0285714 C333.9,17.6571429 332.4,19.8 332.4,22.2857143 C332.4,24.0857143 333.3,25.6285714 335.1,26.7428571 C336.9,27.8571429 339.1,28.9714286 341.7,29.9142857 C344.3,30.8571429 347.2,31.8857143 350.2,32.9142857 C353.3,33.9428571 356.1,35.1428571 358.7,36.6857143 C361.3,38.1428571 363.5,40.0285714 365.3,42.3428571 C367.1,44.6571429 368,47.4857143 368,50.9142857 C368,54.1714286 367.3,57.2571429 365.8,59.9142857 C364.4,62.6571429 362.2,64.9714286 359.3,67.0285714 C356.4,69 352.8,70.5428571 348.5,71.6571429 C344.2,72.7714286 339.1,73.2857143 333.4,73.2857143 C330.1,73.2857143 327.2,73.1142857 324.6,72.6857143 C322,72.3428571 319.7,71.8285714 317.6,71.2285714 C315.5,70.6285714 313.7,70.0285714 312.2,69.3428571 C310.7,68.6571429 309.4,68.0571429 308.3,67.3714286 L315.7,57.1714286 C317.1,57.9428571 318.6,58.6285714 320.2,59.1428571 C321.8,59.7428571 323.5,60.1714286 325.1,60.6 C326.8,60.9428571 328.4,61.2857143 330,61.4571429 C331.6,61.6285714 333,61.7142857 334.4,61.7142857 C335.8,61.7142857 337.6,61.5428571 339.9,61.2857143 C342.2,61.0285714 344.4,60.5142857 346.5,59.7428571 C348.6,58.9714286 350.5,57.9428571 352.1,56.6571429 C353.7,55.3714286 354.5,53.6571429 354.5,51.6857143 C354.5,49.7142857 353.6,48.0857143 351.8,46.7142857 C350,45.3428571 347.8,44.2285714 345.2,43.1142857 C342.6,42.0857143 339.7,41.0571429 336.6,39.9428571 C333.5,38.9142857 330.6,37.7142857 328,36.2571429 C325.4,34.8857143 323.2,33.1714286 321.4,31.2 C319.6,29.2285714 318.7,26.7428571 318.7,23.7428571 C318.7,21.2571429 319.3,18.7714286 320.6,16.2 C321.9,13.6285714 323.8,11.4 326.3,9.42857143 C328.8,7.45714286 331.9,5.82857143 335.7,4.54285714 C339.4,3.25714286 343.8,2.65714286 348.7,2.65714286 C351.5,2.65714286 354.2,2.82857143 356.8,3.25714286 C359.4,3.68571429 361.8,4.11428571 363.8,4.62857143 C365.9,5.14285714 367.6,5.65714286 369,6.08571429 C370.7,6.85714286 371.5,7.2 371.7,7.2 Z" id="Path"></path>
                <path d="M435,7.2 L428.8,16.7142857 C425.8,15.7714286 422.9,15 420,14.4 C417.1,13.8 414.3,13.5428571 411.6,13.5428571 C406.9,13.5428571 403,14.4 400.1,16.0285714 C397.2,17.6571429 395.7,19.8 395.7,22.2857143 C395.7,24.0857143 396.6,25.6285714 398.4,26.7428571 C400.2,27.8571429 402.4,28.9714286 405,29.9142857 C407.6,30.8571429 410.5,31.8857143 413.5,32.9142857 C416.6,33.9428571 419.4,35.1428571 422,36.6857143 C424.6,38.1428571 426.8,40.0285714 428.6,42.3428571 C430.4,44.6571429 431.3,47.4857143 431.3,50.9142857 C431.3,54.1714286 430.6,57.2571429 429.1,59.9142857 C427.7,62.6571429 425.5,64.9714286 422.6,67.0285714 C419.7,69 416.1,70.5428571 411.8,71.6571429 C407.5,72.7714286 402.4,73.2857143 396.7,73.2857143 C393.4,73.2857143 390.5,73.1142857 387.9,72.6857143 C385.3,72.3428571 383,71.8285714 380.9,71.2285714 C378.8,70.6285714 377,70.0285714 375.5,69.3428571 C374,68.6571429 372.7,68.0571429 371.6,67.3714286 L379,57.1714286 C380.4,57.9428571 381.9,58.6285714 383.5,59.1428571 C385.1,59.7428571 386.8,60.1714286 388.4,60.6 C390.1,60.9428571 391.7,61.2857143 393.3,61.4571429 C394.9,61.6285714 396.3,61.7142857 397.7,61.7142857 C399.1,61.7142857 400.9,61.5428571 403.2,61.2857143 C405.5,61.0285714 407.7,60.5142857 409.8,59.7428571 C411.9,58.9714286 413.8,57.9428571 415.4,56.6571429 C417,55.3714286 417.8,53.6571429 417.8,51.6857143 C417.8,49.7142857 416.9,48.0857143 415.1,46.7142857 C413.3,45.3428571 411.1,44.2285714 408.5,43.1142857 C405.9,42.0857143 403,41.0571429 399.9,39.9428571 C396.8,38.9142857 393.9,37.7142857 391.3,36.2571429 C388.7,34.8857143 386.5,33.1714286 384.7,31.2 C382.9,29.2285714 382,26.7428571 382,23.7428571 C382,21.2571429 382.6,18.7714286 383.9,16.2 C385.2,13.6285714 387.1,11.4 389.6,9.42857143 C392.1,7.45714286 395.2,5.82857143 399,4.54285714 C402.7,3.25714286 407.1,2.65714286 412,2.65714286 C414.8,2.65714286 417.5,2.82857143 420.1,3.25714286 C422.7,3.68571429 425.1,4.11428571 427.1,4.62857143 C429.2,5.14285714 430.9,5.65714286 432.3,6.08571429 C434,6.85714286 434.8,7.2 435,7.2 Z" id="Path"></path>
            </g>
            <path d="M357,15.2571429 C350.3,15.8571429 346.2,20.9142857 346,26.5714286 C346.3,34.8 354.2,40.3714286 363.3,40.4571429 C374.1,40.2 382.1,32.8285714 383.4,23.6571429 C384.4,14.1428571 378.3,6 368.9,1.8 C368.8,1.8 367.4,1.2 368.1,1.37142857 C372.4,2.4 376.4,5.31428571 379.2,8.31428571 C387.4,17.3142857 386.5,30.4285714 376.2,37.9714286 C367.1,44.1428571 354.2,43.6285714 346.9,35.4857143 C341.4,28.8857143 342.1,19.7142857 349.7,14.5714286 C356.3,10.3714286 365.8,11.3142857 370,17.6571429 C373.1,22.6285714 371.1,29.5714286 364.3,31.1142857 C360.2,31.9714286 355.2,29.7428571 355.5,25.6285714 C355.6,24.5142857 356.3,23.3142857 357.4,22.8 C351.8,24.4285714 354.4,34.8 364.1,34.1142857 C371,33.5142857 375.3,27.9428571 375.5,21.8571429 C375.3,12.9428571 367.1,6.94285714 357.7,6.85714286 C346.6,7.2 338.2,15.1714286 336.9,25.0285714 C335.8,35.3142857 342.1,44.1428571 351.8,48.6 C351.9,48.6 353.3,49.2857143 352.6,49.1142857 C348.2,48 344,44.8285714 341.2,41.6571429 C332.8,31.9714286 333.7,17.8285714 344.4,9.6 C353.8,2.82857143 367.2,3.42857143 374.6,12.1714286 C380.2,19.2857143 379.5,29.2285714 371.7,34.8 C364.9,39.3428571 355.1,38.4 350.8,31.4571429 C347.7,26.0571429 349.7,18.6 356.7,16.8857143 C363.1,15.4285714 368.2,21.2571429 364.8,25.1142857 C368.6,22.2857143 365.5,14.9142857 357,15.2571429 Z" id="Path"></path>
            <path d="M68.6,43.9714286 C47.7,45.7714286 34.7,61.6285714 34.3,79.2857143 C35.1,105.085714 59.9,122.485714 88.3,122.742857 C122,121.885714 147.1,98.9142857 151.2,70.2857143 C154.4,40.5428571 135.4,15 105.8,1.88571429 C105.6,1.8 101.2,-1.26565425e-14 103.3,0.514285714 C116.7,3.85714286 129.3,12.9428571 137.9,22.1142857 C163.4,50.3142857 160.8,91.2857143 128.5,114.857143 C100.2,134.228571 59.7,132.514286 37,107.142857 C19.9,86.4857143 21.9,57.7714286 45.7,41.6571429 C66.2,28.6285714 95.9,31.3714286 109,51.4285714 C118.6,66.9428571 112.4,88.7142857 91.3,93.4285714 C78.5,96 62.9,89.2285714 63.7,76.3714286 C64,72.9428571 66.2,69.2571429 69.5,67.4571429 C51.9,72.4285714 60.2,104.828571 90.3,102.857143 C111.9,100.885714 125.4,83.6571429 125.9,64.5428571 C125.2,36.6857143 99.6,17.9142857 70.2,17.6571429 C35.3,18.7714286 9.2,43.6285714 4.9,74.6571429 C1.5,106.8 21,134.4 51.6,148.371429 C51.8,148.457143 56.4,150.428571 54.2,149.828571 C40.4,146.314286 27.3,136.457143 18.5,126.6 C-7.8,96.1714286 -4.9,51.9428571 28.5,26.3142857 C57.8,5.22857143 99.7,7.11428571 123.1,34.4571429 C140.7,56.7428571 138.5,87.7714286 113.9,105.257143 C92.6,119.4 61.9,116.571429 48.4,94.8857143 C38.6,78.0857143 45,54.6 66.9,49.4571429 C86.9,44.9142857 102.8,63.1714286 92.1,75.1714286 C104.7,66.0857143 95,42.9428571 68.6,43.9714286 Z" id="Path"></path>
        </g>
    </g>
</svg>