<?xml version="1.0" encoding="utf-8"?>
<!-- Generator: Adobe Illustrator 21.0.0, SVG Export Plug-In . SVG Version: 6.00 Build 0)  -->
<svg version="1.1" id="Layer_1" xmlns="http://www.w3.org/2000/svg" xmlns:xlink="http://www.w3.org/1999/xlink" x="0px" y="0px"
	 viewBox="0 0 614 177" style="enable-background:new 0 0 614 177;" xml:space="preserve">
<style type="text/css">
	.st0{fill:#FFFFFF;}
</style>
<path class="st0" d="M175.7,55.7l6-48.8l13.8,0c5,0,8.9,1.2,11.8,3.7c2.9,2.4,4.3,5.8,4.3,10.2c0,1.5-0.2,3-0.5,4.5
	c-0.3,1.5-0.9,3-1.6,4.5c-0.7,1.4-1.7,2.8-2.8,4c-1.2,1.2-2.5,2.3-4.2,3.1c0.8,1.6,1.6,3.1,2.3,4.6c0.7,1.5,1.5,3,2.2,4.5
	c0.8,1.5,1.6,3.1,2.4,4.7c0.8,1.6,1.7,3.4,2.7,5.2l-9.8,0c-1.6-3.2-3.1-6.1-4.6-8.9c-1.5-2.8-2.8-5.4-4.2-7.9l-0.7,0l-6.8,0
	l-2.1,16.8L175.7,55.7z M186.9,31.2l6.6,0c1.9,0,3.4-0.3,4.7-1c1.3-0.6,2.3-1.5,3-2.4c0.8-1,1.3-2,1.6-3c0.3-1.1,0.5-2.1,0.5-2.9
	c0-0.8-0.1-1.6-0.4-2.4c-0.2-0.8-0.7-1.6-1.2-2.3c-0.6-0.7-1.4-1.3-2.4-1.8c-1-0.5-2.2-0.7-3.7-0.7l-6.6,0L186.9,31.2z"/>
<path class="st0" d="M218.2,55.7l6-48.8h32.4l-0.9,7.4h-24.3l-1.6,13.1h21.6l-0.9,7.6h-21.6l-1.6,13h25.2l-0.9,7.6H218.2z"/>
<path class="st0" d="M294.1,9.6l-3.8,6.7c-1.8-0.7-3.6-1.2-5.3-1.6c-1.8-0.4-3.5-0.6-5.1-0.6c-2.9,0-5.2,0.6-6.9,1.7
	c-1.8,1.2-2.6,2.6-2.6,4.4c0,1.3,0.5,2.3,1.6,3.1c1.1,0.8,2.4,1.6,4,2.2c1.6,0.7,3.3,1.4,5.2,2.1c1.9,0.7,3.6,1.6,5.2,2.6
	c1.6,1,2.9,2.4,4,4c1.1,1.6,1.6,3.6,1.6,6c0,2.3-0.4,4.4-1.3,6.4c-0.9,1.9-2.2,3.6-3.9,5c-1.7,1.4-3.9,2.5-6.5,3.3
	c-2.6,0.8-5.7,1.2-9.1,1.2c-2,0-3.7-0.1-5.3-0.4c-1.6-0.3-3-0.6-4.2-1c-1.3-0.4-2.3-0.8-3.2-1.3c-0.9-0.5-1.7-0.9-2.4-1.4l4.5-7.2
	c0.8,0.5,1.8,1,2.7,1.4c1,0.4,2,0.7,3,1c1,0.3,2,0.5,2.9,0.6c1,0.1,1.8,0.2,2.6,0.2c0.8,0,2-0.1,3.3-0.3c1.4-0.2,2.7-0.6,4-1.1
	c1.3-0.5,2.4-1.3,3.4-2.2c1-0.9,1.4-2.1,1.4-3.5c0-1.4-0.5-2.5-1.6-3.5c-1.1-0.9-2.4-1.8-4-2.5c-1.6-0.7-3.3-1.5-5.2-2.2
	s-3.6-1.6-5.2-2.6c-1.6-1-2.9-2.2-4-3.6c-1.1-1.4-1.6-3.2-1.6-5.3c0-1.7,0.4-3.5,1.2-5.3c0.8-1.8,1.9-3.4,3.5-4.8
	c1.5-1.4,3.4-2.6,5.7-3.5c2.3-0.9,4.9-1.3,7.9-1.3c1.7,0,3.3,0.1,4.9,0.4c1.6,0.3,3,0.6,4.3,1c1.2,0.4,2.3,0.7,3.1,1
	C293.5,9.4,293.9,9.6,294.1,9.6z"/>
<path class="st0" d="M333.2,6.9l-0.9,7.8h-12.1l-5,41h-8.2l5-41h-11.8l1-7.8H333.2z"/>
<path class="st0" d="M389.5,55.7l6-48.8h13.8c5,0,8.9,1.2,11.8,3.7c2.9,2.4,4.3,5.8,4.3,10.2c0,1.5-0.2,3-0.5,4.5s-0.9,3-1.6,4.5
	c-0.7,1.4-1.7,2.8-2.8,4c-1.2,1.2-2.5,2.3-4.2,3.1c0.8,1.6,1.6,3.1,2.3,4.6c0.7,1.5,1.5,3,2.2,4.5c0.8,1.5,1.6,3.1,2.4,4.7
	c0.8,1.6,1.7,3.4,2.7,5.2H416c-1.6-3.2-3.1-6.1-4.6-8.9c-1.5-2.8-2.8-5.4-4.2-7.9h-0.7h-6.8l-2.1,16.8H389.5z M400.7,31.2h6.6
	c1.9,0,3.4-0.3,4.7-1c1.2-0.6,2.3-1.5,3-2.4c0.8-1,1.3-2,1.6-3c0.3-1.1,0.5-2.1,0.5-2.9c0-0.8-0.1-1.6-0.4-2.4
	c-0.2-0.8-0.7-1.6-1.2-2.3c-0.6-0.7-1.4-1.3-2.4-1.8c-1-0.5-2.2-0.7-3.7-0.7h-6.6L400.7,31.2z"/>
<path class="st0" d="M462,55.7l-3.8-12.9h-16.8c-0.8,1.5-1.6,3-2.3,4.4c-0.8,1.4-1.4,2.7-2,3.9c-0.6,1.2-1.1,2.1-1.6,2.9
	c-0.4,0.8-0.8,1.4-0.9,1.7h-8.1c0.2-0.4,0.8-1.4,1.6-3c0.9-1.6,2-3.6,3.2-5.9c1.3-2.3,2.7-5,4.3-7.8c1.6-2.9,3.2-5.8,4.9-8.8
	c1.7-3,3.3-5.9,4.9-8.8c1.6-2.9,3-5.5,4.3-7.8c1.3-2.3,2.4-4.3,3.2-5.9c0.9-1.6,1.4-2.6,1.6-3c0.1,0.4,0.4,1.4,0.9,3
	c0.5,1.6,1.1,3.6,1.8,5.9c0.7,2.3,1.5,5,2.4,7.8s1.8,5.8,2.7,8.8c0.9,3,1.8,5.9,2.7,8.8c0.9,2.9,1.7,5.5,2.4,7.8
	c0.7,2.3,1.3,4.3,1.8,5.9c0.5,1.6,0.8,2.6,0.9,3H462z M445.2,36h11.1c-0.8-2.8-1.6-5.3-2.2-7.5c-0.6-2.2-1-3.6-1.2-4.2
	c0,0,0-0.4-0.1-0.9c-0.1-0.6-0.2-1.1-0.3-1.5c-0.1,0.4-0.3,1-0.6,1.5c-0.2,0.6-0.4,0.9-0.4,0.9L445.2,36z"/>
<path class="st0" d="M506.5,6.9l-0.9,7.8h-12.1l-5,41h-8.2l5-41h-11.8l1-7.8H506.5z"/>
<path class="st0" d="M514.9,6.9h8.2l-6,48.8h-8.2L514.9,6.9z"/>
<path class="st0" d="M536.9,6.9c0.1,0.5,0.4,1.5,0.9,3.1c0.5,1.6,1,3.5,1.7,5.7c0.6,2.2,1.3,4.5,2,6.9c0.7,2.4,1.4,4.7,2,6.9
	c0.6,2.2,1.2,4.1,1.6,5.7c0.5,1.6,0.8,2.7,1,3.1c0,0,0,0.4,0.1,0.9c0.1,0.6,0.2,1.1,0.3,1.6c0.1-0.5,0.3-1,0.6-1.6
	c0.2-0.6,0.4-0.9,0.4-0.9c0.3-0.5,0.8-1.5,1.7-3.1s1.9-3.5,3-5.7c1.1-2.2,2.4-4.5,3.7-6.9c1.3-2.4,2.6-4.7,3.7-6.9
	c1.2-2.2,2.2-4.1,3-5.7s1.4-2.7,1.7-3.1h8.1c-0.2,0.4-0.8,1.4-1.6,3s-2,3.6-3.2,5.9c-1.3,2.3-2.7,5-4.3,7.8
	c-1.6,2.9-3.2,5.8-4.9,8.8c-1.7,3-3.3,5.9-4.9,8.8c-1.6,2.9-3,5.5-4.3,7.9c-1.3,2.3-2.4,4.3-3.2,5.9c-0.9,1.6-1.4,2.6-1.6,3
	c-0.1-0.4-0.4-1.4-0.9-3c-0.5-1.6-1.1-3.6-1.8-5.9c-0.7-2.3-1.5-5-2.4-7.9c-0.9-2.9-1.8-5.8-2.7-8.8c-0.9-3-1.8-5.9-2.7-8.8
	c-0.9-2.9-1.7-5.5-2.4-7.8c-0.7-2.3-1.3-4.3-1.8-5.9c-0.5-1.6-0.8-2.6-0.9-3H536.9z"/>
<path class="st0" d="M572.2,55.7l6-48.8h32.4l-0.9,7.4h-24.3l-1.6,13.1h21.6l-0.9,7.6h-21.6l-1.6,13h25.2l-0.9,7.6H572.2z"/>
<g>
	<path class="st0" d="M176,159.7l9.9-80.8H235l-1.6,12.5h-35.5l-2.8,22.6h30.9l-1.7,12.6h-30.8l-4.1,33H176z"/>
	<path class="st0" d="M247.9,78.9h13.5l-9.9,80.8H238L247.9,78.9z"/>
	<path class="st0" d="M328.5,78.9l-1.6,13h-20.1l-8.3,67.8h-13.6l8.3-67.8h-19.5l1.7-13H328.5z"/>
	<path class="st0" d="M413.6,78.9l-10.3,84.6c-0.4-0.7-1.4-1.9-3-3.7c-1.6-1.8-3.5-3.9-5.7-6.4c-2.3-2.5-4.8-5.2-7.5-8.2
		c-2.8-3-5.6-6-8.5-9.1c-2.9-3.1-5.7-6.1-8.5-9c-2.8-3-5.3-5.7-7.5-8.1c-2.2-2.5-4.1-4.6-5.7-6.3c-1.6-1.7-2.5-2.9-2.9-3.6
		c-0.1-0.1-0.3-0.5-0.8-1.2c-0.4-0.6-0.8-1.2-1.1-1.7c-0.1,0.6-0.1,1.2-0.1,1.8c0,0.6,0,1.2,0,1.8l-6.2,50h-13.5l10.4-84.5
		c0.4,0.7,1.4,1.9,3,3.6c1.6,1.7,3.5,3.8,5.8,6.3c2.3,2.4,4.8,5.1,7.6,8c2.8,2.9,5.6,5.8,8.5,8.8c2.9,3,5.7,5.9,8.5,8.9
		c2.8,2.9,5.3,5.6,7.5,8c2.3,2.4,4.1,4.5,5.7,6.2c1.5,1.7,2.5,2.9,2.9,3.5l1.8,3.1c0.1-0.6,0.1-1.2,0.1-1.9c0-0.7,0-1.3,0-1.9
		l6-48.9H413.6z"/>
	<path class="st0" d="M422.1,159.7l9.9-80.8h53.6l-1.4,12.3h-40.1l-2.7,21.7h35.7l-1.6,12.6h-35.7l-2.7,21.5h41.7l-1.6,12.6H422.1z"
		/>
	<path class="st0" d="M547.7,83.4l-6.2,11.1c-3-1.1-5.9-2-8.8-2.7c-2.9-0.7-5.7-1-8.4-1c-4.7,0-8.6,1-11.5,2.9
		c-2.9,1.9-4.4,4.4-4.4,7.3c0,2.1,0.9,3.9,2.7,5.2c1.8,1.3,4,2.6,6.6,3.7c2.6,1.1,5.5,2.3,8.5,3.5c3.1,1.2,5.9,2.6,8.5,4.4
		c2.6,1.7,4.8,3.9,6.6,6.6c1.8,2.7,2.7,6,2.7,10c0,3.8-0.7,7.4-2.2,10.5c-1.4,3.2-3.6,5.9-6.5,8.3c-2.9,2.3-6.5,4.1-10.8,5.4
		c-4.3,1.3-9.4,1.9-15.1,1.9c-3.3,0-6.2-0.2-8.8-0.7c-2.6-0.4-4.9-1-7-1.7c-2.1-0.7-3.9-1.4-5.4-2.2c-1.5-0.8-2.8-1.5-3.9-2.3
		l7.4-11.9c1.4,0.9,2.9,1.7,4.5,2.3c1.6,0.7,3.3,1.2,4.9,1.7c1.7,0.4,3.3,0.8,4.9,1c1.6,0.2,3,0.3,4.4,0.3c1.4,0,3.2-0.2,5.5-0.5
		c2.3-0.3,4.5-0.9,6.6-1.8c2.1-0.9,4-2.1,5.6-3.6c1.6-1.5,2.4-3.5,2.4-5.8c0-2.3-0.9-4.2-2.7-5.8c-1.8-1.6-4-2.9-6.6-4.2
		c-2.6-1.2-5.5-2.4-8.6-3.7c-3.1-1.2-6-2.6-8.6-4.3c-2.6-1.6-4.8-3.6-6.6-5.9c-1.8-2.3-2.7-5.2-2.7-8.7c0-2.9,0.6-5.8,1.9-8.8
		c1.3-3,3.2-5.6,5.7-7.9c2.5-2.3,5.6-4.2,9.4-5.7c3.7-1.5,8.1-2.2,13-2.2c2.8,0,5.5,0.2,8.1,0.7c2.6,0.5,5,1,7,1.6
		c2.1,0.6,3.8,1.2,5.2,1.7C546.7,83,547.5,83.4,547.7,83.4z"/>
	<path class="st0" d="M611,83.4l-6.2,11.1c-3-1.1-5.9-2-8.8-2.7c-2.9-0.7-5.7-1-8.4-1c-4.7,0-8.6,1-11.5,2.9
		c-2.9,1.9-4.4,4.4-4.4,7.3c0,2.1,0.9,3.9,2.7,5.2c1.8,1.3,4,2.6,6.6,3.7c2.6,1.1,5.5,2.3,8.5,3.5c3.1,1.2,5.9,2.6,8.5,4.4
		c2.6,1.7,4.8,3.9,6.6,6.6c1.8,2.7,2.7,6,2.7,10c0,3.8-0.7,7.4-2.2,10.5c-1.4,3.2-3.6,5.9-6.5,8.3c-2.9,2.3-6.5,4.1-10.8,5.4
		c-4.3,1.3-9.4,1.9-15.1,1.9c-3.3,0-6.2-0.2-8.8-0.7c-2.6-0.4-4.9-1-7-1.7c-2.1-0.7-3.9-1.4-5.4-2.2c-1.5-0.8-2.8-1.5-3.9-2.3
		l7.4-11.9c1.4,0.9,2.9,1.7,4.5,2.3c1.6,0.7,3.3,1.2,4.9,1.7c1.7,0.4,3.3,0.8,4.9,1c1.6,0.2,3,0.3,4.4,0.3c1.4,0,3.2-0.2,5.5-0.5
		c2.3-0.3,4.5-0.9,6.6-1.8c2.1-0.9,4-2.1,5.6-3.6c1.6-1.5,2.4-3.5,2.4-5.8c0-2.3-0.9-4.2-2.7-5.8c-1.8-1.6-4-2.9-6.6-4.2
		c-2.6-1.2-5.5-2.4-8.6-3.7c-3.1-1.2-6-2.6-8.6-4.3c-2.6-1.6-4.8-3.6-6.6-5.9c-1.8-2.3-2.7-5.2-2.7-8.7c0-2.9,0.6-5.8,1.9-8.8
		c1.3-3,3.2-5.6,5.7-7.9c2.5-2.3,5.6-4.2,9.4-5.7c3.7-1.5,8.1-2.2,13-2.2c2.8,0,5.5,0.2,8.1,0.7c2.6,0.5,5,1,7,1.6
		c2.1,0.6,3.8,1.2,5.2,1.7C610,83,610.8,83.4,611,83.4z"/>
</g>
<g>
	<path class="st0" d="M358,18.8c-6.7,0.7-10.8,6.6-11,13.2c0.3,9.6,8.2,16.1,17.3,16.2c10.8-0.3,18.8-8.9,20.1-19.6
		c1-11.1-5.1-20.6-14.5-25.5c-0.1,0-1.5-0.7-0.8-0.5c4.3,1.2,8.3,4.6,11.1,8.1c8.2,10.5,7.3,25.8-3,34.6c-9.1,7.2-22,6.6-29.3-2.9
		c-5.5-7.7-4.8-18.4,2.8-24.4c6.6-4.9,16.1-3.8,20.3,3.6c3.1,5.8,1.1,13.9-5.7,15.7c-4.1,1-9.1-1.6-8.8-6.4c0.1-1.3,0.8-2.7,1.9-3.3
		c-5.6,1.9-3,14,6.7,13.2c6.9-0.7,11.2-7.2,11.4-14.3c-0.2-10.4-8.4-17.4-17.8-17.5c-11.1,0.4-19.5,9.7-20.8,21.2
		c-1.1,12,5.2,22.3,14.9,27.5c0.1,0,1.5,0.8,0.8,0.6c-4.4-1.3-8.6-5-11.4-8.7c-8.4-11.3-7.5-27.8,3.2-37.4c9.4-7.9,22.8-7.2,30.2,3
		c5.6,8.3,4.9,19.9-2.9,26.4c-6.8,5.3-16.6,4.2-20.9-3.9c-3.1-6.3-1.1-15,5.9-17c6.4-1.7,11.5,5.1,8.1,9.6
		C369.6,27,366.5,18.4,358,18.8z"/>
</g>
<g>
	<path class="st0" d="M69.6,52.3c-20.9,2.1-33.9,20.6-34.3,41.2c0.8,30.1,25.6,50.4,54,50.7c33.7-1,58.8-27.8,62.9-61.2
		c3.2-34.7-15.8-64.5-45.4-79.8c-0.2-0.1-4.6-2.2-2.5-1.6c13.4,3.9,26,14.5,34.6,25.2c25.5,32.9,22.9,80.7-9.4,108.2
		c-28.3,22.6-68.8,20.6-91.5-9c-17.1-24.1-15.1-57.6,8.7-76.4C67.2,34.4,96.9,37.6,110,61c9.6,18.1,3.4,43.5-17.7,49
		c-12.8,3-28.4-4.9-27.6-19.9c0.3-4,2.5-8.3,5.8-10.4c-17.6,5.8-9.3,43.6,20.8,41.3c21.6-2.3,35.1-22.4,35.6-44.7
		c-0.7-32.5-26.3-54.4-55.7-54.7C36.3,22.9,10.2,51.9,5.9,88.1c-3.4,37.5,16.1,69.7,46.7,86c0.2,0.1,4.8,2.4,2.6,1.7
		c-13.8-4.1-26.9-15.6-35.7-27.1c-26.3-35.5-23.4-87.1,10-117c29.3-24.6,71.2-22.4,94.6,9.5c17.6,26,15.4,62.2-9.2,82.6
		c-21.3,16.5-52,13.2-65.5-12.1c-9.8-19.6-3.4-47,18.5-53c20-5.3,35.9,16,25.2,30C105.7,78.1,96,51.1,69.6,52.3z"/>
</g>
</svg>
